<?xml version="1.0" encoding="utf-8"?>
<!-- Generator: Adobe Illustrator 17.0.0, SVG Export Plug-In . SVG Version: 6.00 Build 0)  -->
<!DOCTYPE svg PUBLIC "-//W3C//DTD SVG 1.1//EN" "http://www.w3.org/Graphics/SVG/1.1/DTD/svg11.dtd">
<svg version="1.1" id="Layer_1" xmlns="http://www.w3.org/2000/svg" xmlns:xlink="http://www.w3.org/1999/xlink" x="0px" y="0px"
	 width="691.654px" height="586.772px" viewBox="0 0 691.654 586.772" enable-background="new 0 0 691.654 586.772"
	 xml:space="preserve">
<g>
	<polygon fill="#D6B328" points="386.945,110.273 386.945,176.003 329.781,141.485 329.781,76.215 	"/>
	<polygon fill="#ECC21B" points="386.945,176.003 269.273,241.687 213.737,208.271 329.781,141.485 	"/>
	<polygon fill="#F4D221" points="213.691,274.919 269.771,307.601 211.838,340.832 155.759,307.967 	"/>
	<polygon fill="#CCB23A" points="269.273,241.687 269.771,307.601 213.691,274.919 213.737,208.271 	"/>
	<polygon fill="#EDECEC" points="155.94,173.203 213.737,208.271 213.691,274.919 155.759,307.967 	"/>
	<polygon fill="#E7E6E5" points="329.781,76.215 329.781,141.485 213.737,208.271 155.94,173.203 	"/>
	<polygon fill="#E5E4E4" points="287.83,349.569 287.83,283.839 405.502,218.018 461.039,251.571 	"/>
	<polygon fill="#62D3BD" points="518.971,287.098 344.633,383.903 287.83,349.569 461.039,251.571 	"/>
	<polygon fill="#D8D8D7" points="405.412,152.288 462.937,119.01 461.039,251.571 405.502,218.018 	"/>
	<polygon fill="#41A491" points="461.039,251.571 462.937,119.01 519.017,151.875 518.971,287.098 	"/>
</g>
<path d="M282.44,413.493l-24.905,69.48l-9.577-11.541c8.852-1.569,13.352-8.591,13.352-15.987c0-8.291-5.607-16.658-16.82-16.658
	h-18.81v52.291h7.376v-44.671h11.434c6.271,0,9.369,4.556,9.369,9.038c0,4.557-3.098,9.114-9.369,9.114h-8.705v3.585l18.811,22.933
	h0.032l-16.877,47.083l3.186-0.007L285.621,413.5L282.44,413.493z"/>
<path d="M286.344,482.966c-5.533-0.523-11.36-1.196-11.729-6.574c-0.148-1.793,0.221-3.511,1.254-4.856
	c2.065-2.689,5.901-3.884,9.368-3.959c4.5-0.075,9.516,1.942,10.549,6.649l7.376-0.3c-1.327-9.562-9.59-13.744-17.556-13.744
	c-5.975,0-12.172,2.39-15.639,6.947c-2.213,2.914-3.098,6.424-2.803,9.935v-0.075c0.811,10.906,10.253,12.699,18.294,13.521
	c5.163,0.522,10.475,1.195,11.36,5.154c0.147,0.672,0.222,1.27,0.222,1.792c0,5.379-6.049,8.517-11.581,8.517
	c-4.795,0-10.623-2.54-11.139-7.396v0.299l-0.073-1.12l-7.525,0.149l0.074,1.419c0.958,9.338,10.622,14.119,18.589,14.119
	c9.295,0,19.18-5.827,19.18-15.912c0-1.046-0.148-2.316-0.369-3.436C302.204,485.73,293.425,483.862,286.344,482.966z"/>
<polygon points="321.824,490.66 345.209,490.66 345.209,483.041 321.824,483.041 321.824,468.325 345.726,468.325 345.726,460.78 
	314.301,460.78 314.301,512.996 345.799,512.996 345.799,505.451 321.824,505.451 "/>
<path d="M379.804,505.9c-4.943,0-9.442-2.167-12.688-5.603c-3.246-3.436-5.312-8.067-5.312-13.297c0-5.378,2.066-10.01,5.312-13.447
	c3.246-3.435,7.745-5.602,12.688-5.602c7.598,0,13.942,3.959,16.671,11.802h7.377c-2.951-11.802-12.246-19.272-24.049-19.272
	c-7.008,0-13.352,3.063-17.852,7.769c-4.425,4.781-7.376,11.355-7.376,18.75c0,7.246,2.951,13.82,7.376,18.601
	c4.501,4.781,10.845,7.769,17.852,7.769c12.024,0,21.467-8.067,24.418-19.946h-7.303C394.262,501.342,387.624,505.9,379.804,505.9z"
	/>
<polygon points="406.286,467.876 421.924,467.876 421.924,512.996 429.375,512.996 429.375,467.876 444.94,467.876 444.94,460.705 
	406.286,460.705 "/>
<path d="M492.86,459.734c-7.303,0-14.016,3.063-18.811,7.993c-4.721,4.93-7.745,11.652-7.745,19.123
	c0,7.47,3.024,14.193,7.745,19.123c4.795,5.005,11.508,7.992,18.811,7.992c7.376,0,14.016-2.988,18.885-7.992
	c4.721-4.931,7.745-11.653,7.745-19.123c0-7.471-3.024-14.194-7.745-19.123C506.877,462.797,500.237,459.734,492.86,459.734z
	 M506.359,500.521c-3.466,3.585-8.336,5.752-13.499,5.752c-5.164,0-9.885-2.167-13.352-5.752c-3.467-3.436-5.606-8.292-5.606-13.67
	c0-5.379,2.139-10.234,5.606-13.67c3.467-3.586,8.188-5.753,13.352-5.753c5.163,0,10.033,2.167,13.499,5.753
	c3.394,3.436,5.533,8.217,5.533,13.67C511.892,492.304,509.753,497.085,506.359,500.521z"/>
<polygon points="560.505,497.533 535.35,460.705 529.596,460.705 529.596,512.996 537.047,512.996 537.047,476.467 561.979,512.996 
	567.881,512.996 567.881,460.705 560.505,460.705 "/>
<path d="M615.681,494.096c-1.992-8.366-10.77-10.234-17.852-11.13c-5.533-0.523-11.36-1.196-11.729-6.574
	c-0.148-1.793,0.221-3.511,1.254-4.856c2.065-2.689,5.901-3.884,9.368-3.959c4.5-0.075,9.516,1.942,10.549,6.649l7.376-0.3
	c-1.327-9.562-9.59-13.744-17.556-13.744c-5.975,0-12.172,2.39-15.639,6.947c-2.213,2.914-3.098,6.424-2.803,9.935v-0.075
	c0.811,10.906,10.253,12.699,18.294,13.521c5.163,0.522,10.475,1.195,11.36,5.154c0.147,0.672,0.222,1.27,0.222,1.792
	c0,5.379-6.049,8.517-11.581,8.517c-4.795,0-10.623-2.54-11.139-7.396v0.299l-0.073-1.12l-7.525,0.149l0.074,1.419
	c0.958,9.338,10.622,14.119,18.589,14.119c9.295,0,19.18-5.827,19.18-15.912C616.05,496.487,615.902,495.217,615.681,494.096z"/>
<rect x="451.292" y="460.525" width="6.995" height="52.802"/>
<polygon points="123.49,475.615 98.334,438.788 92.581,438.788 92.581,491.078 100.031,491.078 100.031,454.55 124.964,491.078 
	130.866,491.078 130.866,438.788 123.49,438.788 "/>
<polygon points="137.087,445.959 152.726,445.959 152.726,491.078 160.176,491.078 160.176,445.959 175.741,445.959 
	175.741,438.788 137.087,438.788 "/>
<polygon points="191.969,468.742 215.355,468.742 215.355,461.124 191.969,461.124 191.969,446.407 215.871,446.407 
	215.871,438.862 184.446,438.862 184.446,491.078 215.944,491.078 215.944,483.533 191.969,483.533 "/>
<rect x="75.102" y="438.403" width="6.995" height="52.802"/>
</svg>
