<?xml version="1.0" encoding="utf-8"?>
<!-- Generator: Adobe Illustrator 17.0.0, SVG Export Plug-In . SVG Version: 6.00 Build 0)  -->
<!DOCTYPE svg PUBLIC "-//W3C//DTD SVG 1.1//EN" "http://www.w3.org/Graphics/SVG/1.1/DTD/svg11.dtd">
<svg version="1.1" id="Layer_1" xmlns="http://www.w3.org/2000/svg" xmlns:xlink="http://www.w3.org/1999/xlink" x="0px" y="0px"
	 width="691.654px" height="629.291px" viewBox="0 0 691.654 629.291" enable-background="new 0 0 691.654 629.291"
	 xml:space="preserve">
<g>
	<polygon fill="#D6B328" points="386.945,110.273 386.945,176.003 329.781,141.485 329.781,76.215 	"/>
	<polygon fill="#ECC21B" points="386.945,176.003 269.273,241.687 213.737,208.271 329.781,141.485 	"/>
	<polygon fill="#F4D221" points="213.691,274.919 269.771,307.601 211.838,340.832 155.759,307.967 	"/>
	<polygon fill="#CCB23A" points="269.273,241.687 269.771,307.601 213.691,274.919 213.737,208.271 	"/>
	<polygon fill="#EDECEC" points="155.94,173.203 213.737,208.271 213.691,274.919 155.759,307.967 	"/>
	<polygon fill="#E7E6E5" points="329.781,76.215 329.781,141.485 213.737,208.271 155.94,173.203 	"/>
	<polygon fill="#E5E4E4" points="287.83,349.569 287.83,283.839 405.502,218.018 461.039,251.571 	"/>
	<polygon fill="#62D3BD" points="518.971,287.098 344.633,383.903 287.83,349.569 461.039,251.571 	"/>
	<polygon fill="#D8D8D7" points="405.412,152.288 462.937,119.01 461.039,251.571 405.502,218.018 	"/>
	<polygon fill="#41A491" points="461.039,251.571 462.937,119.01 519.017,151.875 518.971,287.098 	"/>
</g>
<path fill="#FFFFFF" d="M282.878,413.493l-24.83,69.48l-8.981-11.541c8.825-1.569,13.312-8.591,13.312-15.987
	c0-8.291-5.59-16.658-16.769-16.658h-18.754v52.291h7.354v-44.671h11.4c6.252,0,9.341,4.556,9.341,9.038
	c0,4.557-3.089,9.114-9.341,9.114h-8.678v3.585l18.188,22.933h0.599l-17.393,47.083l3.743-0.007L286.616,413.5L282.878,413.493z"/>
<path fill="#FFFFFF" d="M287.337,482.966c-5.516-0.523-11.326-1.196-11.693-6.574c-0.148-1.793,0.22-3.511,1.25-4.856
	c2.059-2.689,5.883-3.884,9.34-3.959c4.486-0.075,9.488,1.942,10.517,6.649l7.354-0.3c-1.323-9.562-9.561-13.744-17.504-13.744
	c-5.957,0-12.135,2.39-15.592,6.947c-2.207,2.914-3.089,6.424-2.794,9.935v-0.075c0.808,10.906,10.222,12.699,18.239,13.521
	c5.148,0.522,10.443,1.195,11.326,5.154c0.147,0.672,0.221,1.27,0.221,1.792c0,5.379-6.031,8.517-11.546,8.517
	c-4.781,0-10.591-2.54-11.106-7.396v0.299l-0.073-1.12l-7.502,0.149l0.074,1.419c0.955,9.338,10.59,14.119,18.533,14.119
	c9.267,0,19.122-5.827,19.122-15.912c0-1.046-0.148-2.315-0.368-3.436C303.149,485.73,294.397,483.862,287.337,482.966z"/>
<polygon fill="#FFFFFF" points="322.71,490.66 346.025,490.66 346.025,483.041 322.71,483.041 322.71,468.325 346.54,468.325 
	346.54,460.78 315.209,460.78 315.209,512.996 346.613,512.996 346.613,505.451 322.71,505.451 "/>
<path fill="#FFFFFF" d="M380.516,505.9c-4.928,0-9.414-2.167-12.65-5.603c-3.236-3.436-5.296-8.067-5.296-13.297
	c0-5.378,2.06-10.01,5.296-13.447c3.236-3.435,7.722-5.602,12.65-5.602c7.575,0,13.9,3.959,16.621,11.802h7.355
	c-2.942-11.802-12.209-19.272-23.976-19.272c-6.986,0-13.311,3.063-17.798,7.769c-4.412,4.781-7.354,11.355-7.354,18.75
	c0,7.246,2.942,13.82,7.354,18.601c4.487,4.781,10.812,7.769,17.798,7.769c11.988,0,21.402-8.067,24.344-19.946h-7.281
	C394.93,501.342,388.311,505.9,380.516,505.9z"/>
<polygon fill="#FFFFFF" points="406.917,467.876 422.509,467.876 422.509,512.996 429.937,512.996 429.937,467.876 445.455,467.876 
	445.455,460.705 406.917,460.705 "/>
<path fill="#FFFFFF" d="M493.232,459.734c-7.281,0-13.974,3.063-18.755,7.993c-4.707,4.93-7.722,11.652-7.722,19.123
	c0,7.47,3.015,14.193,7.722,19.123c4.781,5.005,11.473,7.992,18.755,7.992c7.354,0,13.974-2.988,18.828-7.992
	c4.707-4.931,7.722-11.653,7.722-19.123c0-7.471-3.015-14.194-7.722-19.123C507.205,462.797,500.586,459.734,493.232,459.734z
	 M506.69,500.521c-3.456,3.585-8.311,5.752-13.458,5.752c-5.149,0-9.856-2.167-13.312-5.752c-3.457-3.436-5.589-8.292-5.589-13.67
	c0-5.379,2.133-10.234,5.589-13.67c3.457-3.586,8.164-5.753,13.312-5.753c5.148,0,10.002,2.167,13.458,5.753
	c3.384,3.436,5.516,8.217,5.516,13.67S510.073,497.085,506.69,500.521z"/>
<polygon fill="#FFFFFF" points="560.672,497.533 535.593,460.705 529.857,460.705 529.857,512.996 537.285,512.996 537.285,476.467 
	562.142,512.996 568.027,512.996 568.027,460.705 560.672,460.705 "/>
<path fill="#FFFFFF" d="M615.682,494.096c-1.986-8.366-10.738-10.234-17.798-11.13c-5.516-0.523-11.326-1.196-11.693-6.574
	c-0.148-1.793,0.22-3.511,1.25-4.856c2.059-2.689,5.883-3.884,9.34-3.959c4.486-0.075,9.488,1.942,10.517,6.649l7.354-0.3
	c-1.323-9.562-9.561-13.744-17.504-13.744c-5.957,0-12.135,2.39-15.592,6.947c-2.207,2.914-3.089,6.424-2.794,9.935v-0.075
	c0.808,10.906,10.222,12.699,18.239,13.521c5.148,0.522,10.443,1.195,11.326,5.154c0.147,0.672,0.221,1.27,0.221,1.792
	c0,5.379-6.031,8.517-11.546,8.517c-4.781,0-10.591-2.54-11.106-7.396v0.299l-0.073-1.12l-7.502,0.149l0.074,1.419
	c0.955,9.338,10.59,14.119,18.533,14.119c9.267,0,19.122-5.827,19.122-15.912C616.05,496.487,615.902,495.217,615.682,494.096z"/>
<rect x="451.788" y="460.525" fill="#FFFFFF" width="6.974" height="52.802"/>
<polygon fill="#FFFFFF" points="124.973,475.615 99.893,438.788 94.157,438.788 94.157,491.078 101.585,491.078 101.585,454.55 
	126.443,491.078 132.327,491.078 132.327,438.788 124.973,438.788 "/>
<polygon fill="#FFFFFF" points="138.529,445.959 154.121,445.959 154.121,491.078 161.549,491.078 161.549,445.959 177.067,445.959 
	177.067,438.788 138.529,438.788 "/>
<polygon fill="#FFFFFF" points="193.247,468.742 216.561,468.742 216.561,461.124 193.247,461.124 193.247,446.407 217.076,446.407 
	217.076,438.862 185.745,438.862 185.745,491.078 217.149,491.078 217.149,483.533 193.247,483.533 "/>
<rect x="76.731" y="438.403" fill="#FFFFFF" width="6.974" height="52.802"/>
<g>
	<path fill="#EDE6E8" d="M463.014,535.224c0-7.715,4.974-13.654,12.943-13.654c9.593,0,13.298,5.989,13.298,12.181
		c0,3.655-1.929,7.36-5.381,10.203l-7.106,5.583h12.334v8.121h-26.038v-6.243l14.923-13.603c1.523-1.37,2.538-2.843,2.538-4.213
		c0-1.929-1.574-3.705-4.568-3.705c-2.386,0-4.467,2.131-4.467,5.329H463.014z"/>
	<path fill="#EDE6E8" d="M510.875,521.57c10.151,0,18.424,7.918,18.424,18.373c0,10.304-8.273,18.223-18.424,18.223
		c-10.152,0-18.375-7.766-18.375-18.223C492.501,529.488,500.723,521.57,510.875,521.57z M510.672,549.943
		c4.923,0.051,9.897-3.299,9.897-9.999c0-6.8-4.974-10.151-9.897-10.049c-4.822,0.101-9.542,3.4-9.542,10.049
		C501.13,546.593,505.85,549.892,510.672,549.943z"/>
	<path fill="#EDE6E8" d="M539.599,557.658v-20.506l-2.944,2.843l-5.837-5.786l11.319-12.334h5.735v35.784H539.599z"/>
	<path fill="#EDE6E8" d="M578.68,521.824v5.228l-16.597,30.606h-9.441l15.074-27.866h-15.481v-7.968H578.68z"/>
</g>
</svg>
